<?xml version="1.0" encoding="utf-8"?>
<!-- Generator: Adobe Illustrator 26.3.1, SVG Export Plug-In . SVG Version: 6.00 Build 0)  -->
<svg version="1.1" id="Layer_1" xmlns="http://www.w3.org/2000/svg" xmlns:xlink="http://www.w3.org/1999/xlink" x="0px" y="0px"
	 viewBox="0 0 530.7 75.4" style="enable-background:new 0 0 530.7 75.4;" xml:space="preserve">
<style type="text/css">
	.st0{fill:#2B365B;}
	.st1{fill:#2C375C;}
	.st2{fill:#80C89E;}
</style>
<g>
	<path class="st0" d="M66.1,56.2c1.4-4.7,2.6-8.6,3.7-12.6c3-10.4,5.9-20.8,8.8-31.2c0.5-1.7,1.2-3.5,3-4.2c1.7-0.7,3.5-0.7,5.1,0.5
		c1.7,1.3,1.9,3.2,1.3,5.1c-1.3,4.3-2.7,8.5-4.1,12.7c-3.8,11.5-7.6,23.1-11.3,34.6c-1.1,3.3-2.8,5.5-6.5,5.8c-3.6,0.2-5.8-1.3-7-5
		c-4.3-14-8.6-28-12.9-42c-0.1-0.2-0.2-0.4-0.5-1.1c-0.9,2.9-1.8,5.4-2.5,8c-3.5,11.5-7,23-10.5,34.6c-1.2,3.8-3,5.4-6.3,5.5
		c-3.5,0.1-5.7-1.5-6.9-5.2c-5-15.3-10.1-30.7-15.1-46c-0.2-0.6-0.4-1.2-0.5-1.8c-0.7-2.8,0.4-5.2,2.7-6C9.6,7,12,8.2,13,11.3
		c1.1,3.5,2.1,7,3.2,10.5C19.5,33,22.7,44.2,26,55.4c0.8-0.2,0.8-0.8,0.9-1.4c4.1-13.6,8.2-27.2,12.4-40.7c1.2-3.9,3.2-5.6,6.8-5.6
		c3.6,0,5.5,1.5,6.8,5.6C57.3,27.3,61.6,41.4,66.1,56.2z"/>
	<path class="st0" d="M348.8,22.7c-5.4,8.7-10.7,17.3-16.1,26c-3.1,5-7,5-10.1,0c-4.9-7.8-9.8-15.6-14.6-23.4
		c-0.5-0.7-0.9-1.5-1.8-2.9c-0.1,1.7-0.2,2.6-0.2,3.5c0,11.8,0,23.6,0,35.5c0,3.8-1.2,5.3-4.1,5.4c-2.7,0.1-4.2-1.3-4.2-4.1
		c-0.1-4.8,0-9.7,0-14.5c0-11.4,0-22.7,0-34.1c0-2.6,0.4-4.9,3.1-5.9c2.7-1.1,5.9-0.2,7.7,2.3c2.1,2.9,3.8,6,5.7,9.1
		c4.6,7.5,9.3,15.1,13.9,22.6c0.9-0.2,1.1-1.1,1.5-1.7c5.9-9.5,11.7-19,17.5-28.6c0.6-1,1.2-2,2.1-2.7c1.8-1.5,4-1.7,6.1-0.9
		c2,0.8,2.6,2.6,2.6,4.6c0,16.5,0,33,0,49.4c0,3.1-1.7,4.6-4.4,4.5c-2.7-0.1-4-1.6-4.1-4.6c0-12.3,0-24.5,0-36.8c0-0.9,0-1.7,0-2.6
		C349.1,22.7,349,22.7,348.8,22.7z"/>
	<path class="st1" d="M178.8,37.2c0-8.1,0-16.1,0-24.2c0-3.9,1.3-5.2,5.2-5.1c7,0.1,14-0.5,20.9,0.5c12.8,1.8,19.7,14,14.2,25
		c-2,4.1-5.3,6.7-9.5,8.2c-2,0.7-1.7,1.3-0.8,2.7c3.3,4.9,6.4,9.9,9.6,14.9c2.1,3.3,2.1,5.8,0.1,7.2c-2.4,1.6-5.2,0.5-7.2-2.9
		c-3.8-6.1-7.6-12.1-11.3-18.3c-0.8-1.3-1.6-1.9-3.2-1.8c-2.6,0.1-5.2,0.1-7.8,0c-1.4-0.1-1.8,0.4-1.8,1.8c0.1,5.6,0,11.1,0,16.7
		c0,2.3-0.7,4.3-3.3,4.8c-3.2,0.7-5.2-1.2-5.2-4.7C178.8,53.7,178.8,45.5,178.8,37.2z M187.2,25.6c0,2.9,0.1,5.7,0,8.6
		c0,1.2,0.3,1.7,1.6,1.7c4.2-0.1,8.4,0.1,12.6-0.1c5.8-0.2,10.2-4.1,10.6-9.4c0.4-5.4-2.9-9.5-8.9-10.6c-4.9-0.9-9.8-0.2-14.7-0.4
		c-1.3-0.1-1.2,0.7-1.2,1.6C187.2,19.8,187.2,22.7,187.2,25.6z"/>
	<path class="st0" d="M423.4,66.7c-2,0-3.4-1.3-4.3-3.4c-1.4-3.3-2.8-6.5-4.1-9.9c-0.5-1.4-1.3-1.9-2.8-1.9
		c-8.1,0.1-16.1,0.1-24.2,0c-1.5,0-2.2,0.4-2.8,1.9c-1.3,3.3-2.7,6.6-4.1,9.9c-0.6,1.4-1.3,2.8-3,3.2c-1.5,0.3-3,0.4-4.3-0.9
		c-1.3-1.4-1.2-2.9-0.5-4.5c2.5-6,5.1-12,7.6-18c4.3-10.2,8.7-20.4,13-30.5c1-2.3,2.2-4.5,5.1-4.9c3.8-0.5,5.9,0.7,7.6,4.8
		c3.7,8.7,7.4,17.4,11.2,26.1c3.1,7.2,6.2,14.4,9.2,21.6C428.8,64.2,427.4,66.8,423.4,66.7z M411.2,44.2c-3.7-9-7.3-17.5-11-26.5
		c-3.6,8.6-6.9,16.6-10.3,24.7c-0.6,1.5-0.2,1.8,1.3,1.8C397.7,44.2,404.2,44.2,411.2,44.2z"/>
	<path class="st0" d="M489,37.3c0-8.1,0-16.3,0-24.4c0-3.8,1.2-5,5-5c9.3,0,18.6,0,28,0c3.3,0,5,1.4,5,4c0,2.6-1.6,4-4.9,4
		c-7.5,0-15.1,0.1-22.6,0c-1.8,0-2.3,0.5-2.2,2.2c0.1,4.4,0.1,8.8,0,13.2c0,1.6,0.4,2.1,2.1,2.1c6.1-0.1,12.2,0,18.3,0
		c4.3,0,5.6,1,5.6,4c0,2.9-1.4,3.9-5.7,3.9c-6,0-12,0.1-18,0c-1.8,0-2.2,0.5-2.2,2.2c0.1,4.4,0.1,8.8,0,13.2
		c-0.1,1.9,0.6,2.3,2.4,2.3c7.5-0.1,15.1-0.1,22.6,0c3.1,0,4.5,1.2,4.7,3.6c0.2,2.4-1.2,4.1-3.5,4.1c-10.3,0.1-20.6,0.1-30.9,0
		c-2.5,0-3.5-1.8-3.5-4.2C489,54,489,45.6,489,37.3z"/>
	<path class="st1" d="M238.4,37.1c0-8.2,0-16.3,0-24.5c0-3.1,1.5-4.8,4.2-4.8c2.7,0,4.3,1.6,4.3,4.6c0,6.4,0.1,12.7,0,19.1
		c0,1.8,0.6,2,2.2,2.2c4.1,0.5,6.7-0.9,9.1-4.3c4.6-6.5,9.6-12.7,14.5-19c0.6-0.8,1.2-1.6,2.1-2.1c1.7-1,3.7-1.1,5.2,0.4
		c1.7,1.7,1.2,3.7,0,5.4c-2.8,3.8-5.8,7.5-8.7,11.2c-2.7,3.4-5.2,6.8-8,10.1c-1.1,1.3-0.9,2.1,0.1,3.3c5.4,6.4,10.8,13,16.1,19.5
		c0.5,0.6,0.9,1.1,1.3,1.7c1.7,2.5,1.6,4.9-0.3,6.2c-2,1.4-4.9,0.8-6.7-1.4c-3.6-4.5-7.1-9-10.7-13.4c-2-2.5-4.2-4.9-6-7.6
		c-1.2-1.7-2.5-2.2-4.5-2.2c-5.6,0.1-5.6,0-5.6,5.8c0,4.7,0,9.5,0,14.2c0,3.4-1.3,5-4.1,5.1c-2.9,0.1-4.4-1.6-4.4-5.1
		C238.4,53.4,238.4,45.3,238.4,37.1z"/>
	<path class="st0" d="M448.8,40.2c0-7.3-0.1-14.7,0-22c0-1.9-0.5-2.4-2.4-2.4c-3.8,0.1-7.7,0.1-11.6,0c-3.1,0-4.7-1.3-4.7-3.8
		c-0.1-2.6,1.5-4.1,4.5-4.1c12.2,0,24.4,0,36.6,0c3,0,4.5,1.6,4.4,4.2c-0.1,2.4-1.6,3.7-4.6,3.7c-3.8,0-7.5,0.2-11.3-0.1
		c-2.5-0.2-2.9,0.8-2.9,3c0.1,14.4,0.1,28.8,0,43.2c0,3.2-1.2,4.6-3.9,4.7c-2.8,0.1-4.3-1.3-4.3-4.2C448.8,55,448.8,47.6,448.8,40.2
		z"/>
</g>
<g>
	<path class="st2" d="M101.2,49c-1.7-4.2-2.3-8.5-2-13c0.5-8.5,3.7-15.9,9.9-21.8c7.1-6.8,15.7-9.9,25.6-9
		c14.5,1.4,25.7,11.4,28.9,25.6c4,17.7-8,35.7-25.8,38.8c-5.7,1-11.3,0.6-16.7-1.2c-0.2-0.1-0.3-0.1-0.5-0.2
		c0.5-0.9,1.1-1.8,1.6-2.7c0.8-1.3,1.8-2.5,2.3-3.9c0.3,0.1,0.7,0.1,1,0.2c7.2,1.8,13.8,0.6,20-3.3c0.7-0.4,0.6-0.7,0-1.1
		c-8-5.5-19.6-5.5-27.6,0c-0.2,0.2-0.6,0.2-0.6,0.6c-0.8,0.1-1.2,0.6-1.7,1.1c-1.5,1.3-3,2.6-4.1,4.2c-0.9,0.5-1.5,1.5-2.3,2.2
		c-1,1-2,2.1-3,3.1c-1.5,1.5-3.8,1.4-5.3,0c-1.5-1.5-1.6-3.8-0.2-5.4c1.5-1.6,3.1-3.1,4.6-4.7c0.3-0.3,0.6-0.5,0.7-0.9
		c0.4,0,0.6-0.4,0.9-0.6c1.2-1.2,2.5-2.4,3.7-3.7c0.3-0.4,1-0.4,1-1.1c0.9-0.1,1.4-0.8,2.1-1.2c2.6-1.7,5.4-3,8.4-4
		c-5.9-6.7-3.9-15.1,0.7-19.3c4.8-4.3,12.3-4.6,17.4-0.5c2.5,2.1,4.2,4.7,4.8,8c0.8,4.5-0.4,8.4-3.5,11.8c3.7,1.2,6.9,2.8,9.9,5.1
		c0.6,0.5,0.8-0.1,1-0.4c3.8-5.8,5.2-12.1,3.9-18.9c-2.8-13.5-15-21.9-28.6-19.8C116,14.9,107,25.3,106.7,36.9
		c-0.1,2.9,0.4,5.8,1.2,8.6c-0.2,0.1-0.4,0.1-0.5,0.2C105.3,46.8,103.4,48.2,101.2,49z M131.6,43.5c3.2,0,5.8-2.5,5.8-5.7
		c0-3.2-2.5-5.8-5.7-5.8c-3.2,0-5.8,2.6-5.8,5.7C125.9,40.8,128.5,43.4,131.6,43.5z"/>
	<path class="st2" d="M117.9,67.2c-1.2-0.5-2.3-1-3.3-1.8c0.2-0.1,0.4-0.2,0.5-0.4c1.2-2,2.5-4,3.7-6c1,0.5,1.9,1,2.9,1.5
		c-0.6,1.3-1.4,2.5-2.2,3.8C118.8,65.3,118.1,66.1,117.9,67.2z"/>
	<path class="st2" d="M111.5,52.3c0,0.6-0.7,0.7-1,1.1c-1.2,1.2-2.4,2.5-3.7,3.7c-0.3,0.3-0.5,0.6-0.9,0.6c-0.9-1.1-1.7-2.2-2.3-3.5
		c0.4,0,0.6-0.2,0.9-0.4c2-1,3.8-2.3,5.8-3.1C110.7,51.2,111.1,51.8,111.5,52.3z"/>
	<path class="st2" d="M110.4,50.7c-2,0.9-3.9,2.1-5.8,3.1c-0.3,0.2-0.6,0.4-0.9,0.4c-0.6-0.8-1.1-1.7-1.4-2.7c0.4,0,0.6-0.2,0.9-0.4
		c1.9-1.1,3.8-2.2,5.8-3.1C109.4,48.9,109.9,49.8,110.4,50.7z"/>
	<path class="st2" d="M118.7,59c-1.2,2-2.5,4-3.7,6c-0.1,0.2-0.3,0.3-0.5,0.4c-1.1-0.5-2-1.4-3-2c1.1-1.6,2.7-2.9,4.1-4.2
		c0.5-0.4,0.9-1,1.7-1.1C117.8,58.4,118.2,58.7,118.7,59z"/>
	<path class="st2" d="M117.9,67.2c0.2-1.1,1-1.9,1.5-2.8c0.8-1.2,1.6-2.4,2.2-3.8c1,0.4,1.9,0.7,2.9,1.1c-0.5,1.5-1.6,2.6-2.3,3.9
		c-0.5,0.9-1.1,1.8-1.6,2.7C119.6,68,118.7,67.7,117.9,67.2z"/>
	<path class="st2" d="M108.9,48c-2,0.8-3.9,2-5.8,3.1c-0.3,0.2-0.6,0.4-0.9,0.4c-0.5-0.8-0.8-1.6-1-2.5c2.2-0.8,4.1-2.2,6.2-3.3
		c0.2-0.1,0.4-0.2,0.5-0.2C108.3,46.4,108.6,47.2,108.9,48z"/>
</g>
</svg>
